<svg width="1049" height="2147" viewBox="0 0 1049 2147" fill="none" xmlns="http://www.w3.org/2000/svg">
<path d="M1039.38 339.499H1037.36V127.359C1037.36 57.02 980.335 0 909.997 0H138.014C67.6755 0 10.6555 57.02 10.6555 127.359V339.499H8.6335C-0.550498 339.499 0.00651861 346.943 0.00651861 356.126V502.871C0.00651861 512.055 -0.550498 519.498 8.6335 519.498H10.6555V554.498H8.6335C-0.550498 554.498 0.00651861 561.942 0.00651861 571.125V717.87C0.00651861 727.054 -0.550498 734.497 8.6335 734.497H10.6555V2019.64C10.6555 2089.98 67.6765 2147 138.014 2147H909.996C980.335 2147 1037.35 2089.98 1037.35 2019.64V609.499H1039.38C1048.56 609.499 1048 602.055 1048 592.872V356.126C1048 346.943 1048.56 339.499 1039.38 339.499Z" fill="#333343"/>
<path d="M896.853 2115.5H151.163C94.0318 2115.5 47.7188 2069.18 47.7188 2012.05V134.942C47.7188 77.812 94.0318 31.498 151.163 31.498H896.853C953.984 31.498 1000.3 77.811 1000.3 134.942V2012.05C1000.3 2069.18 953.984 2115.5 896.853 2115.5Z" fill="white"/>
</svg>
