<svg preserveAspectRatio="none" width="100%" height="100%" overflow="visible" style="display: block;" viewBox="0 0 45 45" fill="none" xmlns="http://www.w3.org/2000/svg">
<g id="Group 423">
<circle id="Ellipse 8" cx="22.5" cy="22.5" r="22.5" fill="url(#paint0_radial_0_4)"/>
<circle id="Ellipse 9" cx="22.5" cy="22.5" r="21.5" stroke="url(#paint1_linear_0_4)" stroke-width="2"/>
<circle id="Ellipse 10" cx="22.5" cy="22.5" r="21.5" transform="rotate(-90 22.5 22.5)" stroke="url(#paint2_linear_0_4)" stroke-width="2"/>
<circle id="Ellipse 11" cx="22.5" cy="22.5" r="21.5" transform="matrix(4.37114e-08 -1 -1 -4.37114e-08 45 45)" stroke="url(#paint3_linear_0_4)" stroke-width="2"/>
<path id="&#226;&#134;&#151;" d="M15.8329 32L14 30.1695L27.6292 16.5346H17.1018L17.1253 14H32V28.8787H29.4386L29.4621 18.3651L15.8329 32Z" fill="url(#paint4_linear_0_4)"/>
</g>
<defs>
<radialGradient id="paint0_radial_0_4" cx="0" cy="0" r="1" gradientUnits="userSpaceOnUse" gradientTransform="translate(28 18) rotate(120.828) scale(36.1006)">
<stop stop-color="#BBBEC8" stop-opacity="0"/>
<stop offset="1" stop-color="#BBBEC8"/>
</radialGradient>
<linearGradient id="paint1_linear_0_4" x1="16.5" y1="-9" x2="16.5" y2="52.5" gradientUnits="userSpaceOnUse">
<stop stop-color="#C3D1F1"/>
<stop offset="1" stop-color="#D6E4FF"/>
</linearGradient>
<linearGradient id="paint2_linear_0_4" x1="16.5" y1="-4.5" x2="16.5" y2="4.5" gradientUnits="userSpaceOnUse">
<stop stop-color="#3D66BF"/>
<stop offset="1" stop-color="#5F6F93" stop-opacity="0"/>
</linearGradient>
<linearGradient id="paint3_linear_0_4" x1="16.5" y1="-4.5" x2="16.5" y2="4.5" gradientUnits="userSpaceOnUse">
<stop stop-color="#3D66BF"/>
<stop offset="1" stop-color="#5F6F93" stop-opacity="0"/>
</linearGradient>
<linearGradient id="paint4_linear_0_4" x1="23" y1="14" x2="23" y2="32" gradientUnits="userSpaceOnUse">
<stop stop-color="#4E6AB2"/>
<stop offset="1" stop-color="#9AA8CA"/>
</linearGradient>
</defs>
</svg>
