<svg width="1400" height="2000" viewBox="0 0 1400 2000" fill="none" xmlns="http://www.w3.org/2000/svg">
  <!-- Red -->
  <path d="M150 180 Q200 150, 280 190 Q350 230, 320 280 Q290 340, 220 310 Q160 280, 150 180" stroke="#E63946" stroke-width="2" fill="none" stroke-linecap="round"/>
  <path d="M950 850 Q1020 800, 1090 860 Q1150 930, 1100 1010 Q1040 1080, 960 1030 Q890 970, 920 890 Q940 820, 950 850" stroke="#E63946" stroke-width="2" fill="none" stroke-linecap="round"/>

  <!-- Blue -->
  <path d="M900 300 Q1000 250, 1100 320 Q1180 400, 1120 500 Q1050 580, 950 520 Q860 460, 900 360 Q920 280, 900 300" stroke="#457B9D" stroke-width="1.5" fill="none" stroke-linecap="round"/>
  <path d="M200 1200 Q300 1150, 400 1220 Q480 1300, 420 1400 Q350 1480, 260 1420 Q180 1350, 200 1260 Q220 1180, 200 1200" stroke="#1D3557" stroke-width="1.5" fill="none" stroke-linecap="round"/>

  <!-- Green -->
  <path d="M500 500 Q600 450, 680 520 Q750 600, 690 700 Q620 780, 530 720 Q450 650, 480 560 Q500 480, 500 500" stroke="#2A9D8F" stroke-width="2" fill="none" stroke-linecap="round"/>
  <path d="M100 700 Q200 650, 300 720 Q380 800, 320 900 Q250 980, 160 920 Q80 850, 100 760 Q120 680, 100 700" stroke="#264653" stroke-width="1.5" fill="none" stroke-linecap="round"/>

  <!-- Yellow/Orange -->
  <path d="M700 1400 Q800 1350, 880 1420 Q950 1500, 890 1600 Q820 1680, 730 1620 Q650 1550, 680 1460 Q700 1380, 700 1400" stroke="#E9C46A" stroke-width="2" fill="none" stroke-linecap="round"/>
  <path d="M1100 1600 Q1180 1550, 1260 1620 Q1330 1700, 1270 1800 Q1200 1880, 1110 1820 Q1030 1750, 1080 1660 Q1100 1580, 1100 1600" stroke="#F4A261" stroke-width="2" fill="none" stroke-linecap="round"/>

  <!-- Swooping lines -->
  <path d="M0 1000 Q300 900, 600 1000 Q900 1100, 1200 1000 Q1350 950, 1400 980" stroke="#E76F51" stroke-width="1.5" fill="none" stroke-linecap="round"/>
  <path d="M50 1800 Q350 1700, 700 1820 Q1050 1940, 1350 1850" stroke="#457B9D" stroke-width="1.5" fill="none" stroke-linecap="round"/>
</svg>